<svg xmlns="http://www.w3.org/2000/svg" xmlns:xlink="http://www.w3.org/1999/xlink" width="1967.7" height="1999.8" viewBox="0 0 1967.7 1999.8"><defs><linearGradient id="a" x1="1593.69" y1="1929.93" x2="1626.25" y2="1918.64" gradientUnits="userSpaceOnUse"><stop offset="0" stop-color="#febbba"/><stop offset="1" stop-color="#ff928e"/></linearGradient><linearGradient id="b" x1="996.01" y1="1629.84" x2="947.54" y2="1484.45" gradientTransform="translate(1290.1)" xlink:href="#a"/><linearGradient id="c" x1="2149.53" y1="1381.3" x2="2323.72" y2="1457.03" xlink:href="#a"/><linearGradient id="d" x1="2138.68" y1="1406.27" x2="2312.86" y2="1482" xlink:href="#a"/><linearGradient id="e" x1="2293.44" y1="3142.87" x2="2354.41" y2="3142.87" gradientTransform="matrix(-1, 0, 0, 1, 4753.76, 0)" xlink:href="#a"/><linearGradient id="f" x1="1905.79" y1="3092.04" x2="1978.66" y2="3092.04" gradientTransform="matrix(-1, 0, 0, 1, 4753.76, 0)" xlink:href="#a"/><linearGradient id="g" x1="27.6" y1="2902.5" x2="24.6" y2="2829.62" gradientTransform="translate(1990 -609.6) rotate(-7.3)" gradientUnits="userSpaceOnUse"><stop offset="0" stop-color="#e1473d"/><stop offset="1" stop-color="#e9605a"/></linearGradient><linearGradient id="h" x1="23.8" y1="2793.09" x2="38.83" y2="3001.94" xlink:href="#g"/><linearGradient id="i" x1="230.63" y1="2894.14" x2="227.62" y2="2821.26" xlink:href="#g"/><linearGradient id="j" x1="226.28" y1="2778.53" x2="241.31" y2="2987.39" xlink:href="#g"/><linearGradient id="k" x1="142.88" y1="2676.84" x2="122.6" y2="2825.57" gradientTransform="translate(1990 -609.6) rotate(-7.3)" gradientUnits="userSpaceOnUse"><stop offset="0" stop-color="#ff928e"/><stop offset="1" stop-color="#fe7062"/></linearGradient><linearGradient id="l" x1="2493.73" y1="2480.27" x2="2518.45" y2="2365.66" gradientTransform="matrix(1, 0, 0, 1, 0, 0)" xlink:href="#g"/><linearGradient id="m" x1="91.59" y1="3060.48" x2="176.78" y2="3060.48" xlink:href="#k"/><linearGradient id="n" x1="2561.45" y1="1982.01" x2="2396.43" y2="2299.35" xlink:href="#a"/><linearGradient id="o" x1="-236.55" y1="3025.92" x2="-263.68" y2="3262.65" gradientTransform="translate(1290.1)" xlink:href="#a"/><linearGradient id="p" x1="89.28" y1="2996.76" x2="62.16" y2="3233.51" gradientTransform="translate(993.2 65.8) rotate(-3.6)" xlink:href="#a"/><linearGradient id="q" x1="1105.13" y1="1578.34" x2="1293.91" y2="1465.97" xlink:href="#a"/><linearGradient id="r" x1="1311.07" y1="1502.6" x2="1200.89" y2="1340.7" xlink:href="#a"/><linearGradient id="s" x1="1257.61" y1="1538.98" x2="1147.48" y2="1377.16" xlink:href="#a"/><linearGradient id="t" x1="1744.05" y1="1615.97" x2="1347.74" y2="1813.12" xlink:href="#a"/><linearGradient id="u" x1="1738.25" y1="1566.53" x2="1602.69" y2="1708.11" xlink:href="#a"/><linearGradient id="v" x1="1745.94" y1="1613.64" x2="1349.62" y2="1810.78" xlink:href="#a"/><linearGradient id="w" x1="1911.55" y1="1948.14" x2="761.41" y2="1740.16" xlink:href="#a"/><linearGradient id="x" x1="1348.03" y1="1443.72" x2="845.07" y2="2214.63" gradientTransform="matrix(1, 0, 0, 1, 0, 0)" xlink:href="#g"/><linearGradient id="y" x1="1341.05" y1="1439.17" x2="838.09" y2="2210.08" gradientTransform="matrix(1, 0, 0, 1, 0, 0)" xlink:href="#g"/></defs><path d="M1688.2,1871.8s-15.7-41.3-34-37.5-38.3,17.8-38.3,17.8l-29.4,39.8s82.5,32.5,111.5,13.9c0,0,84.3,14.5,190.7-2.9-15.4-32.6-24.5-65.1-29.9-90.4C1804.9,1843,1746.8,1865.8,1688.2,1871.8Z" transform="translate(-944.2 -1255.2)" fill="url(#a)"/><path d="M2134.6,1572.7s-120.7,152-275.8,239.8c5.4,25.3,14.5,57.8,29.9,90.4,80.5-13.3,173.7-44.8,252.7-114.8Z" transform="translate(-944.2 -1255.2)" fill="#ea4335"/><path d="M2285.1,2246.3c-23.6-112.1-47.2-177-126.2-389.5-24.9-66.8-47.5-134.5-36.6-204.9l12.3-79.2s153.5-52,323.7-2.2c0,0,232.2,100.9,74.5,599.1C2461.7,2249.1,2378.5,2271.8,2285.1,2246.3Z" transform="translate(-944.2 -1255.2)" fill="#ea4335"/><path d="M2160.7,1471.6l39.8,95.7a19.3,19.3,0,0,0,14.4,11.4c23,4,78.5,10.1,115-13.8a9.5,9.5,0,0,0,2.5-13.1l-73.6-105.6Z" transform="translate(-944.2 -1255.2)" fill="url(#b)"/><path d="M2201.9,1325.3c-1.7,1.6-70.6,136.9-70.6,136.9l78.1,37.7,84.4-118.6S2229.9,1298.9,2201.9,1325.3Z" transform="translate(-944.2 -1255.2)" fill="url(#c)"/><path d="M2258.3,1395.6l-39,64.9a10.9,10.9,0,0,1-2.1,2.6c-4.6,4.4-20.5,16.9-32.8-.2-10.4-14.5-20.2-27.8-30.7-33.3a12.5,12.5,0,0,0-16.8,5.6c-6.4,12.7-18.9,38.6-26.7,63.2a12.4,12.4,0,0,0,7.2,15.2c15.8,6.4,47.1,18,74.8,21.8a12.3,12.3,0,0,0,11.8-5c11.9-16.3,45.6-62,57-73.4s30.4-6.6,39.2-4.1a12.5,12.5,0,0,0,10-1.3c9-5.4,24.7-18.9,10.3-41.8a12.5,12.5,0,0,1,3.9-16.9c10-6.6,20.9-19,10.5-39.1s-29.2-22.2-42-20.6a13,13,0,0,1-13.6-7.5,8.2,8.2,0,0,0-6.4-5.1c-6.7-1.4-11.1-7.5-9.8-14.2,2.2-11.5.5-26.5-17.8-36.6-33.7-18.5-63.2,11.7-70.7,37.2s30.1,43.5,53.8,46.5c17.4,2.2,27,21.2,30.8,31.1A12.6,12.6,0,0,1,2258.3,1395.6Z" transform="translate(-944.2 -1255.2)" fill="#282828"/><path d="M2244.6,1476.4s16.8-39.4,36-37.8,34.2,20.7,10.5,42.2C2261.5,1507.5,2244.6,1476.4,2244.6,1476.4Z" transform="translate(-944.2 -1255.2)" fill="url(#d)"/><path d="M2269.9,3234.1c37.1,3.2,101.5,8.4,152.2,10.6,30.5,1.3,48.1-1.6,58.2-5.7,0,1.2,0,2.2-.1,3.2a10.4,10.4,0,0,1-10,9.9c-95.8,5.4-172.1,1.9-199.2.2a7.4,7.4,0,0,1-6.1-11.2A64.4,64.4,0,0,1,2269.9,3234.1Z" transform="translate(-944.2 -1255.2)" fill="#313131"/><path d="M2422.1,3244.7c-50.7-2.2-115.1-7.4-152.2-10.6,36.5-44.8,152.2-74.9,152.2-74.9h32.7c22.5,32.4,25.8,63.2,25.5,79.8C2470.2,3243.1,2452.6,3246,2422.1,3244.7Z" transform="translate(-944.2 -1255.2)" fill="#313131"/><path d="M2460.3,3105.8l-3,60.5a13.9,13.9,0,0,1-11.8,13,52.8,52.8,0,0,1-24.6-2,16.4,16.4,0,0,1-11-12.6l-10.6-58.9Z" transform="translate(-944.2 -1255.2)" fill="url(#e)"/><path d="M2884.9,3244.3c16-2.3,23.3-10.6,26.4-19.6v.3c2.4,9.4-3.1,19.1-14.1,23.8-13.2,5.6-27.7,6.6-39,6.1s-23.1-5.5-29.2-13.5h-.1C2841,3247.3,2858,3248,2884.9,3244.3Z" transform="translate(-944.2 -1255.2)" fill="#313131"/><path d="M2809,3105.4h27c41-.8,66.8,85.8,75.3,119.3-3.1,9-10.4,17.3-26.4,19.6-26.9,3.7-43.9,3-56-3-22.2-29.2-33.2-71.9-38.5-96.9C2784.4,3116,2809,3105.4,2809,3105.4Z" transform="translate(-944.2 -1255.2)" fill="#313131"/><path d="M2832.5,3049.3l15,59.5a16.3,16.3,0,0,1-8.4,18.3c-8.4,4.3-20.2,8.8-31,7.5a13.5,13.5,0,0,1-11-9l-22-62.6Z" transform="translate(-944.2 -1255.2)" fill="url(#f)"/><path d="M2850.4,3066.5c-18.6,16.5-79.2,18.7-79.2,18.7C2553,2561.5,2462,2417.3,2462,2417.3c31.5,197.7,6.8,705,6.8,705-36,15.9-82.4,0-82.4,0-2.9-323.5-48.5-671.3-107.2-893.7,147.4-3.3,227.6-35.5,253.2-55.7C2655.3,2371,2850.4,3066.5,2850.4,3066.5Z" transform="translate(-944.2 -1255.2)" fill="#313131"/><path d="M2242,2374.9l27.1,168.8a55.7,55.7,0,0,0,61.8,46.2l406.1-49.5a40.2,40.2,0,0,0,35.3-39c.9-43.6-.8-121.2-19.1-191.9Z" transform="translate(-944.2 -1255.2)" fill="#ea4335"/><path d="M2342.2,2578.7a1.3,1.3,0,0,1-1.1-1,1.1,1.1,0,0,1,1-1.3l9.2-1.2a1.2,1.2,0,0,1,1.3,1,1.1,1.1,0,0,1-1,1.3l-9.2,1.2Zm-21.4-.6h-.3a55.6,55.6,0,0,1-9-2.9,1.1,1.1,0,1,1,.9-2.1,53.9,53.9,0,0,0,8.6,2.8,1.1,1.1,0,0,1,.9,1.3A1.1,1.1,0,0,1,2320.8,2578.1Zm52.1-3.2a1.2,1.2,0,0,1-1.2-1,1.3,1.3,0,0,1,1-1.3l9.2-1.1a1.2,1.2,0,0,1,.3,2.3l-9.2,1.1Zm30.6-3.7a1.2,1.2,0,0,1-1.1-1,1.1,1.1,0,0,1,1-1.3l9.2-1.1a1.1,1.1,0,0,1,1.3,1,1.2,1.2,0,0,1-1,1.3l-9.2,1.1Zm30.7-3.7a1.3,1.3,0,0,1-1.2-1.1,1.3,1.3,0,0,1,1-1.3l9.2-1.1a1.1,1.1,0,0,1,1.3,1,1.1,1.1,0,0,1-1,1.3l-9.2,1.1Zm30.6-3.8a1.1,1.1,0,0,1-1.1-1,1.2,1.2,0,0,1,1-1.3l9.2-1.1a1.2,1.2,0,1,1,.3,2.3l-9.2,1.1Zm-170.5-.5a1.8,1.8,0,0,1-.9-.4,59.8,59.8,0,0,1-5.9-7.4,1.2,1.2,0,0,1,.3-1.6,1.2,1.2,0,0,1,1.6.3,55.4,55.4,0,0,0,5.7,7.1,1.2,1.2,0,0,1,0,1.6C2294.8,2563,2294.6,2563.2,2294.3,2563.2Zm201.2-3.2a1.3,1.3,0,0,1-1.2-1c0-.7.4-1.3,1-1.3l9.2-1.2a1.2,1.2,0,0,1,1.3,1.1,1.1,1.1,0,0,1-1,1.2l-9.2,1.2Zm30.6-3.8a1.1,1.1,0,0,1-1.1-1,1.2,1.2,0,0,1,1-1.3l9.2-1.1a1.2,1.2,0,0,1,1.3,1,1.1,1.1,0,0,1-1,1.3l-9.2,1.1Zm30.7-3.7a1.2,1.2,0,0,1-1.2-1,1.3,1.3,0,0,1,1-1.3l9.2-1.1a1.1,1.1,0,0,1,1.3,1,1.2,1.2,0,0,1-1,1.3l-9.2,1.1Zm30.6-3.7a1.3,1.3,0,0,1-1.1-1.1,1.1,1.1,0,0,1,1-1.2l9.2-1.2a1.3,1.3,0,0,1,1.3,1,1.1,1.1,0,0,1-1,1.3l-9.2,1.2Zm30.7-3.8a1.2,1.2,0,0,1-1.2-1,1.3,1.3,0,0,1,1-1.3l9.2-1.1a1.1,1.1,0,0,1,1.3,1,1.2,1.2,0,0,1-1,1.3l-9.2,1.1Zm30.6-3.7a1.2,1.2,0,0,1-1.1-1,1.1,1.1,0,0,1,1-1.3l9.2-1.1a1.1,1.1,0,0,1,1.3,1,1.2,1.2,0,0,1-1,1.3l-9.2,1.1Zm30.7-3.8a1.2,1.2,0,0,1-1.2-1,1.3,1.3,0,0,1,1-1.3l9.2-1.1a1.2,1.2,0,1,1,.3,2.3l-9.2,1.1Zm-398.9-1.5a1.2,1.2,0,0,1-1.2-.9l-1.5-9.2a1.2,1.2,0,0,1,1-1.3,1.1,1.1,0,0,1,1.3,1l1.5,9.1a1.1,1.1,0,0,1-.9,1.3Zm429.5-2.2a1.1,1.1,0,0,1-1.1-1,1.2,1.2,0,0,1,1-1.3l9.2-1.1a1.2,1.2,0,0,1,.3,2.3l-9.2,1.1Zm29.9-6.6a1.3,1.3,0,0,1-1-.6,1.2,1.2,0,0,1,.4-1.6,34.8,34.8,0,0,0,7.2-5.4,1.2,1.2,0,0,1,1.7.1,1.1,1.1,0,0,1-.1,1.6,38.7,38.7,0,0,1-7.6,5.7Zm-464.4-21.6a1.2,1.2,0,0,1-1.1-1l-1.5-9.2a1.2,1.2,0,0,1,1-1.3,1.1,1.1,0,0,1,1.3,1l1.5,9.1a1.1,1.1,0,0,1-1,1.3Zm482.6-2.4h-.3a1.3,1.3,0,0,1-.9-1.4,37.6,37.6,0,0,0,1.1-8.1v-.8a1.2,1.2,0,0,1,1.2-1.2h0a1.1,1.1,0,0,1,1.1,1.2v.8a41.3,41.3,0,0,1-1.1,8.6A1.1,1.1,0,0,1,2758.1,2503.2Zm-487.5-28.1a1.2,1.2,0,0,1-1.1-1l-1.5-9.1a1.2,1.2,0,0,1,1-1.4,1.2,1.2,0,0,1,1.3,1l1.5,9.1a1.2,1.2,0,0,1-1,1.4Zm488.7-2.7a1.2,1.2,0,0,1-1.2-1.1c0-3,0-6.1-.1-9.3a1.3,1.3,0,0,1,1.2-1.2c.6-.1,1.1.5,1.1,1.2.1,3.2.1,6.2.2,9.3a1.2,1.2,0,0,1-1.2,1.1Zm-493.6-27.8a1.2,1.2,0,0,1-1.1-1l-1.5-9.1a1.2,1.2,0,0,1,1-1.4,1.2,1.2,0,0,1,1.3,1l1.5,9.1a1.2,1.2,0,0,1-1,1.4Zm492.9-3.1a1.1,1.1,0,0,1-1.2-1.1c-.1-3-.3-6.1-.4-9.2a1.1,1.1,0,0,1,1.1-1.2c.7-.1,1.1.4,1.2,1.1.1,3.1.3,6.2.4,9.2a1.1,1.1,0,0,1-1.1,1.2Zm-497.8-27.4a1.2,1.2,0,0,1-1.1-1l-1.5-9.1a1.1,1.1,0,0,1,1-1.3,1.1,1.1,0,0,1,1.3.9l1.5,9.2a1.1,1.1,0,0,1-1,1.3Zm495.9-3.4a1.2,1.2,0,0,1-1.2-1.1c-.2-3-.5-6.1-.8-9.2a1.1,1.1,0,0,1,1.1-1.2,1,1,0,0,1,1.2,1c.3,3.1.6,6.2.8,9.3a1.1,1.1,0,0,1-1,1.2Zm-500.8-27.1a1.2,1.2,0,0,1-1.1-1l-1.7-10.3,4.8-.6a1.1,1.1,0,0,1,1.3,1,1.2,1.2,0,0,1-1,1.3l-2.4.3,1.3,8a1.1,1.1,0,0,1-1,1.3Zm497.6-3.6a1.2,1.2,0,0,1-1.1-1l-1.2-9.2a1.1,1.1,0,0,1,1-1.3,1.2,1.2,0,0,1,1.3,1l1.2,9.2a1.2,1.2,0,0,1-1,1.3Zm-474-8.7a1.3,1.3,0,0,1-1.2-1c0-.7.4-1.3,1-1.3l9.2-1.2a1.1,1.1,0,0,1,1.3,1,1.1,1.1,0,0,1-1,1.3l-9.2,1.2Zm30.6-4a1,1,0,0,1-1.1-1,1.1,1.1,0,0,1,1-1.3l9.2-1.1a1.1,1.1,0,0,1,1.3,1,1.3,1.3,0,0,1-1.1,1.3l-9.1,1.1Zm30.6-3.9a1.2,1.2,0,0,1-1.1-1,1.2,1.2,0,0,1,1-1.3l9.2-1.2a1.2,1.2,0,0,1,1.3,1,1.1,1.1,0,0,1-1,1.3l-9.2,1.2Zm30.7-3.9a1.2,1.2,0,0,1-1.2-1,1.2,1.2,0,0,1,1-1.3l9.2-1.2a1.2,1.2,0,1,1,.3,2.3l-9.2,1.2Zm30.6-3.9a1.2,1.2,0,0,1-1.2-1,1.2,1.2,0,0,1,1-1.3l9.2-1.2a1.1,1.1,0,0,1,1.3,1,1.1,1.1,0,0,1-1,1.3l-9.2,1.2Zm30.6-3.9a1.1,1.1,0,0,1-1.1-1,1,1,0,0,1,1-1.3l9.2-1.2a1.1,1.1,0,0,1,1.3,1,1.3,1.3,0,0,1-1,1.3l-9.2,1.2Zm316.4-2.2a1.2,1.2,0,0,1-1.2-1c-.5-3-1.1-6.1-1.7-9.1a1.1,1.1,0,0,1,.9-1.3,1.1,1.1,0,0,1,1.4.9c.6,3,1.2,6.1,1.7,9.1a1.1,1.1,0,0,1-.9,1.3Zm-285.8-1.7a1.3,1.3,0,0,1-1.1-1.1,1.2,1.2,0,0,1,1-1.3l9.2-1.1a1.1,1.1,0,0,1,1.3,1,1.2,1.2,0,0,1-1,1.3l-9.2,1.1Zm30.7-4a1.2,1.2,0,0,1-1.2-1,1.2,1.2,0,0,1,1-1.3l9.2-1.1a1.1,1.1,0,0,1,1.3,1,1.1,1.1,0,0,1-1,1.2l-9.2,1.2Zm30.6-3.9a1,1,0,0,1-1.1-1,1.1,1.1,0,0,1,1-1.3l9.1-1.2a1.1,1.1,0,0,1,1.3,1,1.1,1.1,0,0,1-1,1.3l-9.1,1.2Zm30.6-3.9a1.2,1.2,0,0,1-1.1-1,1.1,1.1,0,0,1,1-1.3l9.2-1.2a1.1,1.1,0,0,1,1.3,1,1.2,1.2,0,0,1-1,1.3l-9.2,1.2Zm30.7-3.9a1.3,1.3,0,0,1-1.2-1,1.1,1.1,0,0,1,1-1.3l9.2-1.2a1.1,1.1,0,0,1,1.3,1,1.2,1.2,0,0,1-1,1.3l-9.2,1.2Zm30.6-3.9a1.3,1.3,0,0,1-1.2-1.1,1.3,1.3,0,0,1,1-1.3l9.2-1.1a1,1,0,0,1,1.3,1,1.1,1.1,0,0,1-1,1.3l-9.2,1.1Zm30.6-4a1,1,0,0,1-1.1-1,1.1,1.1,0,0,1,1-1.3l9.2-1.1a1,1,0,0,1,1.2,1,1,1,0,0,1-1,1.2l-9.1,1.2Zm30.6-3.9a1.2,1.2,0,0,1-1.1-1,1.2,1.2,0,0,1,1-1.3l9.2-1.2a1.1,1.1,0,0,1,1.3,1,1.1,1.1,0,0,1-1,1.3l-9.2,1.2Zm65.1-1.1a1.3,1.3,0,0,1-1.2-.9c-.4-2-.9-4-1.4-6l-1.1.2a1.2,1.2,0,0,1-1.3-1,1.2,1.2,0,0,1,1-1.3l3.1-.4.2,1,1.8,7a1.1,1.1,0,0,1-.9,1.4Zm-34.4-2.8a1.2,1.2,0,0,1-1.2-1,1.2,1.2,0,0,1,1-1.3l9.2-1.2a1.1,1.1,0,0,1,1.3,1,1.2,1.2,0,0,1-1,1.3l-9.2,1.2Z" transform="translate(-944.2 -1255.2)" fill="#fff"/><path d="M2345.2,2236.7l-.4-13.3a9.9,9.9,0,0,1,6.8-6.8c12.4-3.6,43.3-11.2,59.9-1.8l4.1,14.9Z" transform="translate(-944.2 -1255.2)" fill="url(#g)"/><path d="M2383.1,2219a17.5,17.5,0,0,1-8.8,1.1,8,8,0,0,1-7-6.8l-5.2-41,20.8-2.6,5.3,40.9A8.1,8.1,0,0,1,2383.1,2219Z" transform="translate(-944.2 -1255.2)" fill="url(#h)"/><path d="M2546.9,2210.8l-.4-13.2a9.9,9.9,0,0,1,6.8-6.8c12.4-3.7,43.3-11.2,59.9-1.9l4.2,14.9Z" transform="translate(-944.2 -1255.2)" fill="url(#i)"/><path d="M2584.8,2193.2a17.2,17.2,0,0,1-8.7,1.1,7.8,7.8,0,0,1-7-6.9l-5.8-45.2,20.8-2.7,5.8,45.2A8,8,0,0,1,2584.8,2193.2Z" transform="translate(-944.2 -1255.2)" fill="url(#j)"/><path d="M2361.3,2182.6l223-36a11.1,11.1,0,0,0,9.2-10.2,93.5,93.5,0,0,0-3-28.5,26.1,26.1,0,0,0-27.8-18.7c-41.9,4.4-148.3,18-203.9,48.7a21,21,0,0,0-10.6,15.8,50.5,50.5,0,0,0,2.4,22.8A9.7,9.7,0,0,0,2361.3,2182.6Z" transform="translate(-944.2 -1255.2)" fill="url(#k)"/><path d="M2355.8,2173.6a3.1,3.1,0,0,1-3-2.4,54.3,54.3,0,0,1-.9-17.8,21,21,0,0,1,12.3-16.2c12.1-5.3,35.3-14.6,55-17.7a3,3,0,0,1,3.5,2.6,3.1,3.1,0,0,1-2.6,3.5c-19.6,3.1-43.9,13.1-53.4,17.3a14.7,14.7,0,0,0-8.7,11.3,51.3,51.3,0,0,0,.8,15.6,3.1,3.1,0,0,1-2.3,3.7Z" transform="translate(-944.2 -1255.2)" fill="#fff" opacity="0.58"/><path d="M2240.6,2244.9c72.3-10.2,384.9-53.6,477.2-54.2a18.6,18.6,0,0,1,17.8,12.3c8.4,23.6,26.5,78.6,32.4,134.7a16.5,16.5,0,0,1-11.3,17.2l-202.6,65.8-73.7,9.4-226.8-15.6a17.4,17.4,0,0,1-16-14.3c-5-28-15.7-93.7-13.6-137.2A19.3,19.3,0,0,1,2240.6,2244.9Z" transform="translate(-944.2 -1255.2)" fill="#e57373"/><path d="M2479.9,2413.2h-.1l-9.3-.7a1.1,1.1,0,0,1-1-1.2c0-.6.6-1,1.2-1.1l9.2.7a1.1,1.1,0,0,1,1.1,1.2A1.1,1.1,0,0,1,2479.9,2413.2Zm8.4-1.1a1,1,0,0,1-1.1-1,1.1,1.1,0,0,1,1-1.3l9.1-1.2a1.1,1.1,0,0,1,1.3,1,1.1,1.1,0,0,1-1,1.3l-9.1,1.2Zm-39.2-1h-.1l-9.3-.7a1.1,1.1,0,0,1-1-1.2c0-.7.6-1,1.2-1.1l9.2.6a1.2,1.2,0,0,1,1.1,1.3A1.1,1.1,0,0,1,2449.1,2411.1Zm-30.8-2.2h-.1l-9.3-.6a1.1,1.1,0,0,1-1-1.2,1.1,1.1,0,0,1,1.2-1.1l9.2.6c.7.1,1.2.6,1.1,1.2A1,1,0,0,1,2418.3,2408.9Zm100.6-.7a1.2,1.2,0,0,1-1.1-1,1.1,1.1,0,0,1,1-1.3l9.2-1.2a1.1,1.1,0,0,1,1.3,1,1.2,1.2,0,0,1-1,1.3l-9.2,1.2Zm-131.4-1.4h-.1l-9.3-.6a1.1,1.1,0,0,1-1-1.3c0-.6.6-1,1.2-1.1l9.2.7a1.1,1.1,0,0,1,1.1,1.2A1.1,1.1,0,0,1,2387.5,2406.8Zm-30.8-2.1h-.1l-9.3-.7a1.1,1.1,0,0,1-1-1.2c0-.6.6-1,1.2-1.1l9.2.7a1.1,1.1,0,0,1,1.1,1.2A1.1,1.1,0,0,1,2356.7,2404.7Zm192.9-.4a1.3,1.3,0,0,1-1.2-1.1,1.1,1.1,0,0,1,1-1.2h.6l8-2.7a1.3,1.3,0,0,1,1.5.8,1.2,1.2,0,0,1-.7,1.5l-9.1,2.7A.1.1,0,0,1,2549.6,2404.3Zm-223.8-1.8h0l-9.3-.6a1.2,1.2,0,0,1-1.1-1.2,1.3,1.3,0,0,1,1.3-1.1l9.2.6a1.2,1.2,0,0,1,1.1,1.3C2327,2402.1,2326.5,2402.5,2325.8,2402.5Zm-30.8-2.1h0l-9.3-.6a1.2,1.2,0,1,1,.2-2.3l9.2.6a1.1,1.1,0,0,1,1.1,1.2A1.2,1.2,0,0,1,2295,2400.4Zm-30.8-2.1h0l-9.9-.7-.2-.9a1.4,1.4,0,0,1,.9-1.5,1.6,1.6,0,0,1,1,.2l8.3.6a1.1,1.1,0,0,1,1.1,1.2A1.2,1.2,0,0,1,2264.2,2398.3Zm314.8-3.5a1.3,1.3,0,0,1-1.2-.8,1.1,1.1,0,0,1,.8-1.4l8.8-2.9a1.2,1.2,0,1,1,.7,2.2l-8.8,2.9Zm29.3-9.5a1.2,1.2,0,0,1-1.1-.8,1.2,1.2,0,0,1,.8-1.5l8.8-2.8a1.1,1.1,0,0,1,1.4.7,1.2,1.2,0,0,1-.7,1.5l-8.8,2.8Zm-356.7-9.2a1.1,1.1,0,0,1-1.1-1c-.5-2.9-1-6-1.5-9.2a1.2,1.2,0,0,1,1-1.3,1.1,1.1,0,0,1,1.3,1c.5,3.1,1,6.2,1.4,9.1a1.2,1.2,0,0,1-.9,1.4Zm386.1-.4a1.1,1.1,0,0,1-.4-2.2l8.8-2.9a1.2,1.2,0,0,1,1.5.8,1.1,1.1,0,0,1-.8,1.4l-8.8,2.9Zm29.3-9.5a1.3,1.3,0,0,1-1.1-.8,1.2,1.2,0,0,1,.8-1.5l8.8-2.8a1.2,1.2,0,0,1,1.5.7,1.2,1.2,0,0,1-.8,1.5l-8.8,2.8Zm29.4-9.6a1.2,1.2,0,0,1-1.1-.8,1.1,1.1,0,0,1,.8-1.4l8.8-2.9a1.1,1.1,0,0,1,1.4.8,1.1,1.1,0,0,1-.7,1.4l-8.8,2.9Zm29.4-9.5a1.1,1.1,0,0,1-1.1-.8,1.2,1.2,0,0,1,.7-1.5l8.8-2.8a1.2,1.2,0,0,1,1.5.7,1.2,1.2,0,0,1-.8,1.5l-8.8,2.8Zm-478.6-1.6a1.2,1.2,0,0,1-1.2-1c-.4-3-.8-6.1-1.1-9.2a1.1,1.1,0,0,1,1-1.3,1.2,1.2,0,0,1,1.3,1c.3,3.1.7,6.2,1.1,9.2a1.2,1.2,0,0,1-1,1.3Zm502-11.7a1.1,1.1,0,0,1-1.1-1.1c-.4-3-.8-6.1-1.3-9.1a1.2,1.2,0,0,1,1-1.3c.7-.2,1.2.3,1.3,1,.5,3,.9,6.1,1.3,9.2a1.3,1.3,0,0,1-1,1.3Zm-505.5-19a1.1,1.1,0,0,1-1.1-1.1c-.3-3.1-.5-6.2-.8-9.2a1.3,1.3,0,0,1,1.1-1.3c.7.1,1.2.5,1.2,1.1.3,3.1.5,6.1.8,9.2a1.2,1.2,0,0,1-1.1,1.3Zm500.7-11.5a1.2,1.2,0,0,1-1.2-1l-1.8-9a1.1,1.1,0,0,1,.9-1.4,1.1,1.1,0,0,1,1.3.9c.7,3,1.3,6,1.9,9.1a1.1,1.1,0,0,1-.9,1.3Zm-502.5-19.4a1.2,1.2,0,0,1-1.2-1.1c0-2.5-.1-5-.1-7.4v-1.9a1.2,1.2,0,0,1,1.2-1.1h0a1.2,1.2,0,0,1,1.2,1.1v1.9c.1,2.4.1,4.9.1,7.4a1,1,0,0,1-1.1,1.1Zm495.7-10.8a1.1,1.1,0,0,1-1.1-.9c-.7-3-1.5-6-2.3-8.9a1.2,1.2,0,0,1,.8-1.4,1.2,1.2,0,0,1,1.5.8c.7,2.9,1.5,5.9,2.3,9a1.2,1.2,0,0,1-.9,1.4Zm-484.3-10.7a1,1,0,0,1-1.1-.9,1.2,1.2,0,0,1,.9-1.4l9.2-1.2a1.1,1.1,0,0,1,1.3,1,1.1,1.1,0,0,1-1,1.3l-9.1,1.2Zm30.6-4.2a1,1,0,0,1-1.1-1,1.1,1.1,0,0,1,.9-1.3l9.2-1.3a1.2,1.2,0,0,1,1.3,1,1.1,1.1,0,0,1-1,1.3l-9.1,1.3Zm30.6-4.2a1,1,0,0,1-1.1-1,1.1,1.1,0,0,1,1-1.3l9.1-1.2a1,1,0,0,1,1.3.9,1.2,1.2,0,0,1-.9,1.4l-9.2,1.2Zm30.6-4.1a1.2,1.2,0,0,1-.1-2.3l9.2-1.3a1.2,1.2,0,0,1,1.3,1c0,.7-.4,1.3-1,1.3l-9.2,1.3Zm30.6-4.1a1.2,1.2,0,0,1-1.1-1,1.2,1.2,0,0,1,1-1.3l9.2-1.2a1.2,1.2,0,1,1,.3,2.3l-9.2,1.2Zm353.8-2.5a1.1,1.1,0,0,1-1.1-.8l-2.8-8.8a1.2,1.2,0,0,1,.8-1.5,1.1,1.1,0,0,1,1.4.8l2.8,8.8a1.2,1.2,0,0,1-.8,1.5Zm-323.1-1.5a1.2,1.2,0,0,1-1.2-1,1.2,1.2,0,0,1,1-1.3l9.2-1.2a1.2,1.2,0,1,1,.3,2.3l-9.2,1.2Zm30.6-3.9a1.1,1.1,0,0,1-1.1-1,1.1,1.1,0,0,1,1-1.3l9.1-1.2a1.1,1.1,0,0,1,1.3,1,1.1,1.1,0,0,1-1,1.3l-9.2,1.2Zm30.6-3.9a1.2,1.2,0,0,1-1.1-1,1.2,1.2,0,0,1,1-1.3l9.2-1.1a1.1,1.1,0,0,1,1.3,1,1.2,1.2,0,0,1-1,1.3l-9.2,1.1Zm30.7-3.7a1.3,1.3,0,0,1-1.2-1c0-.7.4-1.3,1-1.3l9.2-1.1a1,1,0,0,1,1.3,1,1.1,1.1,0,0,1-1,1.3l-9.2,1.1Zm30.6-3.7a1.2,1.2,0,0,1-1.1-1,1.2,1.2,0,0,1,1-1.3l9.2-1.1a1.2,1.2,0,0,1,1.3,1.1,1.1,1.1,0,0,1-1,1.2l-9.2,1.1Zm30.7-3.5a1,1,0,0,1-1.1-1,1.1,1.1,0,0,1,1-1.3l9.2-1a1.1,1.1,0,0,1,1.3,1,1.2,1.2,0,0,1-1,1.3l-9.2,1Zm30.7-3.3a1.1,1.1,0,0,1-1.1-1.1,1.2,1.2,0,0,1,1-1.3l9.2-.9a1.2,1.2,0,0,1,1.3,1,1.2,1.2,0,0,1-1,1.3l-9.3,1Zm30.7-3.2a1.2,1.2,0,0,1-1.1-1,1.1,1.1,0,0,1,1-1.3l9.3-.9a1.1,1.1,0,0,1,1.2,1.1,1.1,1.1,0,0,1-1,1.2l-9.2.9Zm98.9-2.7a1.2,1.2,0,0,1-1.1-.7l-1.2-3.3h-4.2a1.1,1.1,0,0,1-1.1-1.1,1.1,1.1,0,0,1,1.1-1.2h4.5a2,2,0,0,1,1.8,1.2l1.3,3.7a1.2,1.2,0,0,1-.7,1.5Zm-68.1-.1a1.3,1.3,0,0,1-1.2-1.1,1.2,1.2,0,0,1,1.1-1.2l9.2-.8a1.2,1.2,0,0,1,1.3,1.1,1.2,1.2,0,0,1-1.1,1.2l-9.2.8Zm30.8-2.4a1.3,1.3,0,0,1-1.2-1.1,1.2,1.2,0,0,1,1.1-1.2l9.3-.6c.6-.1,1.1.5,1.2,1.1a1.2,1.2,0,0,1-1.1,1.2l-9.2.6Z" transform="translate(-944.2 -1255.2)" fill="#fff"/><path d="M2551.1,2452.5l-64.5,8.3a16.8,16.8,0,0,1-18.5-12.5l-15.4-61.2a16.8,16.8,0,0,1,14.2-20.8l77.6-9.9a16.7,16.7,0,0,1,18.9,16l2.5,62.8A16.9,16.9,0,0,1,2551.1,2452.5Z" transform="translate(-944.2 -1255.2)" fill="url(#l)"/><path d="M2541.7,2442.1l-49.1,6.3a12.9,12.9,0,0,1-14.1-9.5l-11.7-46.6a12.8,12.8,0,0,1,10.8-15.8l59.1-7.5a12.7,12.7,0,0,1,14.4,12.1l1.8,47.9A12.7,12.7,0,0,1,2541.7,2442.1Z" transform="translate(-944.2 -1255.2)" fill="url(#m)"/><path d="M2503.3,1946.8c15.3,63,15.7,124.6,13.3,147a17.3,17.3,0,0,1-16.1,15.6l-34.5,2.3c-12.8.7-27.1-7.4-36.7-14.2-4.9-3.5-11.2,1.9-8.5,7.2,4.7,9.2,12.9,16.5,21,22.6,4.9,3.7,21,10.3,19.9,17.6a11.7,11.7,0,0,1-3.2,6c-9,10.8-22.6,16.6-36,20.7a10.1,10.1,0,0,0-4.7,2.4c-.3,8.7,26.4,18.3,33.3,20.6a77.8,77.8,0,0,0,32.1,3.8c26.9-2.9,51.7-21.4,66.2-43.8,38.7-59.8,58.7-132,66-187.2C2579.4,1931.4,2525.1,1940.5,2503.3,1946.8Z" transform="translate(-944.2 -1255.2)" fill="url(#n)"/><path d="M2615.4,1973c28.7-216.9-138.4-383.6-138.4-383.6l-99.5,115.9c75.5,94.1,111.4,180.3,127.8,248.1C2527.1,1947,2579.4,1937,2615.4,1973Z" transform="translate(-944.2 -1255.2)" fill="#ea4335"/><path d="M2502.9,1952.3a6.1,6.1,0,0,1-5.9-4.7c-20.2-83.5-62.8-166.1-126.6-245.7a6.1,6.1,0,0,1,.9-8.6,6.2,6.2,0,0,1,8.7.9c64.9,81,108.3,165.2,128.9,250.5a6.1,6.1,0,0,1-4.5,7.4A3.9,3.9,0,0,1,2502.9,1952.3Z" transform="translate(-944.2 -1255.2)" fill="#282828"/><path d="M1156.1,3238.2a12.4,12.4,0,0,0-.4-3.3c-16-63.4-95.3-102.9-95.3-102.9l-31.5,2.5c-18.1,55.9-15.8,90.2-12.9,105.4.1.5.3.9.4,1.3C1042.3,3243.5,1095.7,3245,1156.1,3238.2Z" transform="translate(-944.2 -1255.2)" fill="#313131"/><path d="M1016.4,3241.2c1.4,5.1,5.1,9.1,9.9,10.1,37,7.7,95.6,1.5,120.3-1.7,5.4-.7,9.4-5.8,9.5-11.4C1095.7,3245,1042.3,3243.5,1016.4,3241.2Z" transform="translate(-944.2 -1255.2)" fill="#313131"/><path d="M1016.3,3087.6l13.3,64.2c1,4.7,4.6,8.2,8.9,8.6a90.8,90.8,0,0,0,20.7-.3c6.9-1,11.6-8,10.4-15.5l-9.2-57Z" transform="translate(-944.2 -1255.2)" fill="url(#o)"/><path d="M1292.3,3240.4c-34.7-1-52.7-5.1-62-8.9,0,3.5,0,7,.1,10.6a6.9,6.9,0,0,0,6.6,7l190.7-1.2c6.1-.1,9.7-7.1,7-12.7C1409.7,3237.3,1346,3241.9,1292.3,3240.4Z" transform="translate(-944.2 -1255.2)" fill="#313131"/><path d="M1434.7,3235.2a10.1,10.1,0,0,0-.7-1.5c-16.9-23.5-59.8-70.4-144.6-90.7l-40.6-1.3s-18.2,31.5-18.5,89.8c9.3,3.8,27.3,7.9,62,8.9C1346,3241.9,1409.7,3237.3,1434.7,3235.2Z" transform="translate(-944.2 -1255.2)" fill="#313131"/><path d="M1239.4,3082c.6,3,9.1,48.6,12.4,66.3.8,4.2,4,7.3,7.9,7.5,7,.4,18.2.4,27.9-2.2,5.2-1.4,8.7-6.7,8.3-12.6l-4.5-72.2Z" transform="translate(-944.2 -1255.2)" fill="url(#p)"/><path d="M1208.6,2239.3s55.9,384.5,96.3,842c.8,8.5-6,16-14.4,17.7-12.3,2.6-30.5,5.7-45.5,5.3a16.8,16.8,0,0,1-16-14.1c-13.8-80.7-111.9-513.6-137.7-608.9,0,0-29.6,404.8-20.1,614.8a10,10,0,0,1-8.8,10.3,168,168,0,0,1-36.5-.1A13.3,13.3,0,0,1,1014,3095c-9.8-68.3-66.2-474.6-63.8-767.4.1-16.5,19.4-152.1,19.4-152.1Z" transform="translate(-944.2 -1255.2)" fill="#313131"/><path d="M961.2,2261.5a15.8,15.8,0,0,1-10.4-13.3c-7.5-72.2-43.5-519.8,183.9-703.9,0,0,13.1-34.1,120.3,49.7s49.8,171.8,24.1,293.1c-31,146.8-85.5,266.7-61.4,357a12.4,12.4,0,0,1-7.7,15C1126.8,2289.8,1043.8,2290.9,961.2,2261.5Z" transform="translate(-944.2 -1255.2)" fill="#ea4335"/><path d="M1223.5,1410.2c-.1,6.3-90.9,135.3-90.9,135.3s16.3,32.1,94.1,58.2l67.2-138.1Z" transform="translate(-944.2 -1255.2)" fill="url(#q)"/><path d="M1295,1336.3s32.3,74.2,34.5,113.2,10.5,64.2-34.5,72-83-14.6-103.6-53.4c0,0-32.2-59.8-25-84.3S1295,1336.3,1295,1336.3Z" transform="translate(-944.2 -1255.2)" fill="url(#r)"/><path d="M1206.8,1440.2l2.6-1.1a6.2,6.2,0,0,0,3-8.5c-6.4-12.3-18.7-40.4-2.7-47,20.6-8.4,102.2-25.1,119.9-54.1s1.9-63.8-20.7-74a3.1,3.1,0,0,0-4,1.3l-1.9,3.6a3,3,0,0,1-5.6-.6h0a3.1,3.1,0,0,0-5.6-.8c-5.4,8.7-20,22.8-59.1,30-55.6,10.2-92.3,32.7-93.2,71.1a3.2,3.2,0,0,1-4.8,2.6c-4.1-2.5-10.7-3.7-19.4,3.7-15.3,12.8-9,46.1,24.4,73.5a3,3,0,0,1-.1,4.9c-6.1,3.9-15.1,13.3,8.3,25.8s42.3,11.9,49.3,10.8a3.2,3.2,0,0,0,2.5-3.7l-7.5-33.8a3.1,3.1,0,0,1,3-3.7Z" transform="translate(-944.2 -1255.2)" fill="#282828"/><path d="M1208.2,1447.4s-12.3-47.5-33.6-34.2,11,53.2,28.1,54.9Z" transform="translate(-944.2 -1255.2)" fill="url(#s)"/><path d="M1289.5,1633l6.3,168.1a451.3,451.3,0,0,0,50.8,14.5c10.1-32.5,32.3-72.4,50.5-102C1330.3,1690,1289.5,1633,1289.5,1633Z" transform="translate(-944.2 -1255.2)" fill="#ea4335"/><path d="M1623.1,1630.1c-91.7,99-165.9,104.8-226,83.5-18.2,29.6-40.4,69.5-50.5,102,244.7,53.9,302.4-171.1,302.4-171.1Z" transform="translate(-944.2 -1255.2)" fill="url(#t)"/><path d="M1641.6,1619.6s10.6-11.3,30.1-7.8,37,10.4,49.1,0,16.5,3.6,16.5,3.6l-36.5,27.7Z" transform="translate(-944.2 -1255.2)" fill="url(#u)"/><path d="M1619.8,1639s7.3-30.3,29.1-26.1,71.3,31,84,26.1,29.1-16.9,37.4-12.7l-14.7,18.4s37.9-21.9,44.4-8.5l-63,35.5S1644.7,1662.5,1619.8,1639Z" transform="translate(-944.2 -1255.2)" fill="url(#v)"/><path d="M1187.8,1853.1s172.3,144.3,358.3,81.3a44.4,44.4,0,0,1,35,2.6l53.4,28.3a47.8,47.8,0,0,0,63.3-17.7c7.5-12.5,13.8-26.7,15.1-40.3L1608.2,1865l7.7-12.9s-51.1-4.3-64.5,32.3c0,0-97.3,40.5-261.5-140C1289.9,1744.4,1215.5,1807.7,1187.8,1853.1Z" transform="translate(-944.2 -1255.2)" fill="url(#w)"/><path d="M1178.5,1851.6a3.4,3.4,0,0,1-1.7-.5c-72.5-49.1-106.7-128.2-107-129a2.9,2.9,0,0,1,1.6-3.8,2.8,2.8,0,0,1,3.8,1.5c.4.8,33.9,78.4,104.9,126.4a2.9,2.9,0,0,1,.8,4.1A2.9,2.9,0,0,1,1178.5,1851.6Z" transform="translate(-944.2 -1255.2)" fill="url(#x)"/><path d="M1286.5,1741.9a2.9,2.9,0,0,1-2.4-1.3c-.3-.4-22.4-34.9-64.6-110.5-13-23.2-30.1-37.9-50.7-43.7-34.3-9.6-67.3,8.8-67.6,8.9a2.9,2.9,0,0,1-4-1.1,2.9,2.9,0,0,1,1.1-4c1.4-.8,35.4-19.8,72-9.5,22.2,6.2,40.5,21.9,54.3,46.5,42.1,75.4,64.2,109.8,64.4,110.2a2.8,2.8,0,0,1-.9,4A2.4,2.4,0,0,1,1286.5,1741.9Z" transform="translate(-944.2 -1255.2)" fill="url(#y)"/></svg>