<svg xmlns="http://www.w3.org/2000/svg" width="300.2" height="303.2" viewBox="0 0 300.2 303.2">
    <g style="isolation:isolate">
        <path
            d="M383.8,274.6H167.7a4,4,0,0,1-4-4.2L171,137.9a4.5,4.5,0,0,1,4.4-4.3H391.5a3.9,3.9,0,0,1,4,4.3l-7.2,132.5A4.6,4.6,0,0,1,383.8,274.6Z"
            transform="translate(-95.3 -113.1)" fill="#313131" />
        <path
            d="M292.9,156.2H272a12,12,0,0,1-12-12.7l.2-3.8a13.2,13.2,0,0,1,13-12.3h20.9A11.9,11.9,0,0,1,306,140.1l-.2,3.8A13.1,13.1,0,0,1,292.9,156.2Z"
            transform="translate(-95.3 -113.1)" fill="#313131" />
        <polygon points="216.6 299 209.9 299 191.4 17.3 198.1 17.3 216.6 299" fill="#313131" />
        <polygon points="166.3 299 173 299 191.4 17.3 184.8 17.3 166.3 299" fill="#313131" />
        <path
            d="M382.6,274.6H166.5a4,4,0,0,1-4-4.2l7.3-132.5a4.6,4.6,0,0,1,4.5-4.3H390.4a4,4,0,0,1,4,4.3l-7.3,132.5A4.5,4.5,0,0,1,382.6,274.6Z"
            transform="translate(-95.3 -113.1)" fill="#5c84f0" />
        <path
            d="M170,270.5a3.1,3.1,0,0,1-3.2-3.3l6.9-126.1a3.6,3.6,0,0,1,3.6-3.4H387a3.2,3.2,0,0,1,3.2,3.4l-7,126.1a3.6,3.6,0,0,1-3.5,3.3Z"
            transform="translate(-95.3 -113.1)" fill="#263238" opacity="0.4" />
        <path
            d="M381,203.7H317.8a2.7,2.7,0,0,1-2.7-2.9l3.2-57.3a.4.4,0,1,0-.8,0l-3.2,57.3a3.1,3.1,0,0,1-3,2.9H245.7a2.7,2.7,0,0,1-2.7-2.9l3.1-57.3c0-.3-.1-.5-.4-.5a.5.5,0,0,0-.4.5l-3.1,57.3a3.2,3.2,0,0,1-3.1,2.9H176a.4.4,0,0,0,0,.8h63.1a2.7,2.7,0,0,1,2.7,2.9l-3.1,57.4c-.1.2.1.4.3.4a.5.5,0,0,0,.5-.4l3.1-57.4a3.2,3.2,0,0,1,3.1-2.9h65.5a2.8,2.8,0,0,1,2.8,2.9l-3.2,57.4a.4.4,0,0,0,.8,0l3.2-57.4a3.1,3.1,0,0,1,3-2.9h63.1a.4.4,0,0,0,.4-.4C381.4,203.9,381.2,203.7,381,203.7Z"
            transform="translate(-95.3 -113.1)" fill="#5c84f0" />
        <polygon points="182.7 40.4 157.4 40.4 155.9 66.2 181.3 66.9 182.7 40.4" fill="#263238" opacity="0.4" />
        <path d="M275.3,178.8l-25.4-1.2a214.5,214.5,0,0,0,2.6-26.4l25.6,1.3A215.5,215.5,0,0,1,275.3,178.8Z"
            transform="translate(-95.3 -113.1)" fill="#fff" />
        <polygon points="213.3 57.6 187.9 59.6 188.4 85.3 213.8 84 213.3 57.6" fill="#263238" opacity="0.4" />
        <path d="M307.8,196.1l-25.6.7a211.6,211.6,0,0,0,.7-26.4l25.7-.7A212.9,212.9,0,0,1,307.8,196.1Z"
            transform="translate(-95.3 -113.1)" fill="#5c84f0" />
        <polygon points="139.1 104.5 92.3 102.7 88.1 144.4 134.8 147.2 139.1 104.5" fill="#263238" opacity="0.4" />
        <path d="M227.8,258.4l-46.9-3.8a293.7,293.7,0,0,0,6.5-42.4l47.2,3.8A309.2,309.2,0,0,1,227.8,258.4Z"
            transform="translate(-95.3 -113.1)" fill="#fff" />
        <g opacity="0.3" style="mix-blend-mode:multiply">
            <path
                d="M186.3,159.3h0a2.5,2.5,0,0,1-2.5-2.7h0a2.8,2.8,0,0,1,2.8-2.6h0a2.5,2.5,0,0,1,2.5,2.6h0A2.8,2.8,0,0,1,186.3,159.3Z"
                transform="translate(-95.3 -113.1)" fill="#263238" />
            <path
                d="M227.7,159.3H195.2a2.5,2.5,0,0,1-2.5-2.7h0a2.8,2.8,0,0,1,2.8-2.6H228a2.4,2.4,0,0,1,2.4,2.6h0A2.8,2.8,0,0,1,227.7,159.3Z"
                transform="translate(-95.3 -113.1)" fill="#263238" opacity="0.8" />
            <path
                d="M185.7,170.8h0a2.5,2.5,0,0,1-2.5-2.7h0a2.8,2.8,0,0,1,2.8-2.6h0a2.6,2.6,0,0,1,2.5,2.6h0A2.9,2.9,0,0,1,185.7,170.8Z"
                transform="translate(-95.3 -113.1)" fill="#263238" />
            <path
                d="M232.8,170.8H194.6a2.5,2.5,0,0,1-2.5-2.7h0a2.7,2.7,0,0,1,2.7-2.6h38.3a2.6,2.6,0,0,1,2.5,2.6h0A2.9,2.9,0,0,1,232.8,170.8Z"
                transform="translate(-95.3 -113.1)" fill="#263238" opacity="0.8" />
            <path
                d="M185,182.3h0a2.6,2.6,0,0,1-2.5-2.7h0a2.9,2.9,0,0,1,2.8-2.6h0a2.4,2.4,0,0,1,2.5,2.6h0A2.8,2.8,0,0,1,185,182.3Z"
                transform="translate(-95.3 -113.1)" fill="#263238" />
            <path
                d="M212.5,182.3H193.9a2.6,2.6,0,0,1-2.5-2.7h0a2.9,2.9,0,0,1,2.8-2.6h18.6a2.4,2.4,0,0,1,2.5,2.6h0A2.8,2.8,0,0,1,212.5,182.3Z"
                transform="translate(-95.3 -113.1)" fill="#263238" opacity="0.8" />
            <path
                d="M229.8,193.8H211.2a2.4,2.4,0,0,1-2.5-2.6h0a2.8,2.8,0,0,1,2.7-2.7H230a2.5,2.5,0,0,1,2.5,2.7h0A2.7,2.7,0,0,1,229.8,193.8Z"
                transform="translate(-95.3 -113.1)" fill="#263238" opacity="0.8" />
            <path
                d="M184.4,193.8h0a2.5,2.5,0,0,1-2.5-2.6h0a2.8,2.8,0,0,1,2.8-2.7h0a2.5,2.5,0,0,1,2.5,2.7h0A2.8,2.8,0,0,1,184.4,193.8Z"
                transform="translate(-95.3 -113.1)" fill="#263238" />
            <path
                d="M201.9,193.8h-8.6a2.4,2.4,0,0,1-2.5-2.6h0a2.8,2.8,0,0,1,2.8-2.7h8.6a2.6,2.6,0,0,1,2.5,2.7h0A2.9,2.9,0,0,1,201.9,193.8Z"
                transform="translate(-95.3 -113.1)" fill="#263238" opacity="0.8" />
        </g>
        <polygon points="169.8 115 157.2 115 155.5 146.5 168.1 146.5 169.8 115" fill="#5c84f0" />
        <polygon points="188.9 121.5 176.3 121.5 174.9 146.5 187.5 146.5 188.9 121.5" fill="#5c84f0" />
        <polygon points="209.3 104.7 196.7 104.7 194.4 146.5 207 146.5 209.3 104.7" fill="#5c84f0" />
        <path
            d="M255.4,245.8h-3.8a21.8,21.8,0,0,1-7.6-1.5.8.8,0,0,1-.4-1.1.7.7,0,0,1,1-.4,20.8,20.8,0,0,0,7.1,1.4c15.1.8,28.3-3.2,41.6-12.4a46.2,46.2,0,0,0,10.8-10.5.8.8,0,0,1,1.2-.2.9.9,0,0,1,.2,1.1A46.1,46.1,0,0,1,294.2,233C281.7,241.7,269.3,245.8,255.4,245.8Z"
            transform="translate(-95.3 -113.1)" fill="#fff" />
        <path
            d="M307.4,227.4H307a.8.8,0,0,1-.4-1.1,13.8,13.8,0,0,0,.7-8.7,54,54,0,0,1-10.1,5.3.7.7,0,0,1-1-.4.8.8,0,0,1,.4-1.1,52.6,52.6,0,0,0,10.7-5.8.6.6,0,0,1,.7-.1c.3.1.5.3.5.5a15.2,15.2,0,0,1-.4,10.9A.8.8,0,0,1,307.4,227.4Z"
            transform="translate(-95.3 -113.1)" fill="#fff" />
        <path
            d="M373.7,196.4H326.8a2.5,2.5,0,0,1-2-.9,2.8,2.8,0,0,1-.8-2.1l2.2-39.6a3.2,3.2,0,0,1,3.1-3h46.8a3.1,3.1,0,0,1,2.1.9,2.7,2.7,0,0,1,.7,2.1l-2.1,39.6A3.2,3.2,0,0,1,373.7,196.4Zm-44.4-44.7a2.3,2.3,0,0,0-2.3,2.1l-2.2,39.6a2,2,0,0,0,.6,1.5,1.9,1.9,0,0,0,1.4.7h46.9a2.4,2.4,0,0,0,2.3-2.2l2.1-39.6a1.7,1.7,0,0,0-.5-1.5,2,2,0,0,0-1.5-.6Z"
            transform="translate(-95.3 -113.1)" fill="#407bff" />
        <path d="M378.1,162.2h-52a.4.4,0,1,1,0-.8h52a.4.4,0,1,1,0,.8Z" transform="translate(-95.3 -113.1)"
            fill="#407bff" />
        <path
            d="M336.5,196.4h0a.5.5,0,0,1-.4-.5l1.9-34.1a.4.4,0,0,1,.4-.4.4.4,0,0,1,.4.4L336.9,196A.4.4,0,0,1,336.5,196.4Z"
            transform="translate(-95.3 -113.1)" fill="#407bff" />
        <path d="M372.2,166.3H343.9a.4.4,0,0,1-.4-.4.4.4,0,0,1,.4-.4h28.3a.4.4,0,0,1,.4.4A.4.4,0,0,1,372.2,166.3Z"
            transform="translate(-95.3 -113.1)" fill="#407bff" />
        <path d="M367.9,171.2H343.7c-.3,0-.4-.1-.4-.4a.4.4,0,0,1,.4-.4h24.2a.4.4,0,0,1,.4.4A.4.4,0,0,1,367.9,171.2Z"
            transform="translate(-95.3 -113.1)" fill="#407bff" />
        <path d="M357.5,176.4H343.4a.4.4,0,0,1,0-.8h14.1a.4.4,0,1,1,0,.8Z" transform="translate(-95.3 -113.1)"
            fill="#407bff" />
        <path d="M360.1,186.4H342.8a.4.4,0,1,1,0-.8h17.3a.4.4,0,1,1,0,.8Z" transform="translate(-95.3 -113.1)"
            fill="#407bff" />
        <path d="M356.7,191.6H342.6a.5.5,0,0,1-.5-.4.5.5,0,0,1,.5-.5h14.1a.5.5,0,0,1,.4.5A.4.4,0,0,1,356.7,191.6Z"
            transform="translate(-95.3 -113.1)" fill="#407bff" />
        <path d="M364.9,191.6h-4.5a.4.4,0,0,1-.4-.4.5.5,0,0,1,.4-.5h4.5a.5.5,0,0,1,.4.5A.4.4,0,0,1,364.9,191.6Z"
            transform="translate(-95.3 -113.1)" fill="#407bff" />
        <path d="M369.5,181.4H343.1a.4.4,0,0,1-.4-.4.4.4,0,0,1,.4-.4h26.4c.3,0,.4.1.4.4A.4.4,0,0,1,369.5,181.4Z"
            transform="translate(-95.3 -113.1)" fill="#407bff" />
        <path
            d="M344.9,254c-6.1,0-11.1-1.8-14.2-5.2s-4.7-9.2-3.8-15.5a19.8,19.8,0,0,1,3.7-9.5,20.3,20.3,0,0,1,8.2-6.2,28.4,28.4,0,0,1,24.2.3c3.3,1.7,5.4,3.8,6.2,6.2a.8.8,0,0,1-.6,1c-.4.2-.8-.1-1-.5-.6-2-2.4-3.8-5.3-5.2a26.7,26.7,0,0,0-22.8-.3,18,18,0,0,0-7.6,5.6,18.3,18.3,0,0,0-3.4,8.8c-.9,5.8.4,11,3.3,14.2s11.1,4.8,14.8,4.6c6.9-.4,12.9-2.8,16.8-6.8s5.9-11.7,3-16.4c-.6-.8-1.8-2.4-3.5-2.5a.8.8,0,0,1-.7-.9.8.8,0,0,1,.8-.8c1.9.2,3.5,1.4,4.8,3.4,3.2,5.2,1.8,13.1-3.2,18.3s-10.6,6.9-17.9,7.3Z"
            transform="translate(-95.3 -113.1)" fill="#fff" />
        <path
            d="M137.3,169.3l-2.9,5.1-2.8,5.1c-1.9,3.4-3.6,6.9-5.3,10.4-.8,1.7-1.5,3.4-2.2,5.2l-.2.3h-.1v.3a1.5,1.5,0,0,0,.1,1.1,12.7,12.7,0,0,0,2.4,3.7c1.1,1.2,2.6,2.5,3.9,3.7l-2.3,5-3.3-1.2a21.9,21.9,0,0,1-3-1.6,17.2,17.2,0,0,1-5.7-5.2,12.1,12.1,0,0,1-1.7-4.5,13.1,13.1,0,0,1-.1-2.8,6.1,6.1,0,0,1,.3-1.3v-1l2.1-6.1q2.4-5.8,5.1-11.4c1-1.8,1.9-3.6,3-5.4s2-3.6,3.1-5.4Z"
            transform="translate(-95.3 -113.1)" fill="#ffc3bd" />
        <path d="M127.6,203.8l5.3-1.4.3,8.5s-4.2.6-6.7-1.9Z" transform="translate(-95.3 -113.1)" fill="#ffc3bd" />
        <polygon points="45 87.9 43.8 95.4 37.8 97.9 37.5 89.4 45 87.9" fill="#ffc3bd" />
        <path d="M162,129.4c.2.5.6.9.9.9s.6-.6.5-1.2-.5-1-.9-.9S161.9,128.8,162,129.4Z"
            transform="translate(-95.3 -113.1)" fill="#313131" />
        <path d="M162.5,130.4a23.2,23.2,0,0,0,3.8,4.4c-.8,1.1-2.7,1-2.7,1Z" transform="translate(-95.3 -113.1)"
            fill="#ed847e" />
        <path d="M159.3,126.6H159a.4.4,0,0,1,0-.5,3.7,3.7,0,0,1,3-1.2c.1.1.3.2.2.4s-.2.3-.4.3h0a2.7,2.7,0,0,0-2.3,1Z"
            transform="translate(-95.3 -113.1)" fill="#313131" />
        <path d="M145.5,137.5c1,5.4,2.1,15.2-1.7,18.8,0,0,1.5,5.5,11.5,5.5s5.2-5.5,5.2-5.5c-6-1.4-5.8-5.8-4.8-10Z"
            transform="translate(-95.3 -113.1)" fill="#ffc3bd" />
        <path d="M141.7,157.3c-.8-1.5-1.7-3.2.1-3.7s14.9-1.7,18.7-.6c-1.1,2.1.9,4.6.9,4.6Z"
            transform="translate(-95.3 -113.1)" fill="#313131" />
        <path
            d="M109.1,407.9a2.9,2.9,0,0,0,1.9-.1.7.7,0,0,0,.1-.8c0-.3-.2-.4-.4-.5s-3.3.4-3.4.5a.1.1,0,0,0-.1.1v.2Zm1.2-1.2c.1,0,.2,0,.2.1a.3.3,0,0,1,.3.3c.1.3,0,.4-.1.4s-1.8,0-2.9-.4A7.7,7.7,0,0,1,110.3,406.7Z"
            transform="translate(-95.3 -113.1)" fill="#313131" />
        <path
            d="M107.3,407.3h.1c.9-.3,2.6-1.5,2.7-2.4a.6.6,0,0,0-.5-.5h-.8c-.9.5-1.6,2.6-1.6,2.7h.1Zm2.1-2.6h.1l.2.2c0,.5-1.2,1.5-2,1.9a3.9,3.9,0,0,1,1.3-2Z"
            transform="translate(-95.3 -113.1)" fill="#313131" />
        <path
            d="M163.4,409.1c.9,0,1.8-.1,2.1-.5a.7.7,0,0,0,0-.8,1,1,0,0,0-.5-.4c-1.3-.3-3.8,1.1-3.9,1.2s-.1.1-.1.2h.1Zm1.1-1.4h.4c.1.1.3.2.3.3a.8.8,0,0,1,.1.4c-.4.4-2.2.4-3.6.2A9.2,9.2,0,0,1,164.5,407.7Z"
            transform="translate(-95.3 -113.1)" fill="#313131" />
        <path
            d="M161.2,408.9h0c.9-.4,2.7-2,2.5-2.8s-.1-.5-.6-.5a1.7,1.7,0,0,0-1,.3,5,5,0,0,0-1.1,2.8c0,.1,0,.1.1.2Zm1.7-3h.2c.3.1.3.2.3.2s-1.1,1.8-2,2.3a3.9,3.9,0,0,1,.9-2.2A.9.9,0,0,1,162.9,405.9Z"
            transform="translate(-95.3 -113.1)" fill="#313131" />
        <polygon points="57.7 295.7 65.1 295.7 65.8 278.7 58.5 278.7 57.7 295.7" fill="#ffc3bd" />
        <polygon points="3.8 292.3 11 293.8 18.2 278 11 276.4 3.8 292.3" fill="#ffc3bd" />
        <path
            d="M107,406.2l-8-1.8a.9.9,0,0,0-.8.4l-2.8,6.1a1.2,1.2,0,0,0,.8,1.5l7.8,1.4,10.1,2.3c3,.7,4.1-2.2,2.9-2.7-5.3-2.4-7.5-4.6-8.9-6.5A1.6,1.6,0,0,0,107,406.2Z"
            transform="translate(-95.3 -113.1)" fill="#313131" />
        <path
            d="M160.4,407.9h-8a.8.8,0,0,0-.7.5l-1.4,6.5a1,1,0,0,0,1,1.3L162,416l13,.2c3,0,3.8-3,2.6-3.3-5.8-1.2-10.5-1.4-15.5-4.4A2.7,2.7,0,0,0,160.4,407.9Z"
            transform="translate(-95.3 -113.1)" fill="#313131" />
        <path
            d="M130.7,158c-6.9,1.6-12.6,19.1-12.6,19.1l13.8,10.6a30.5,30.5,0,0,0,7.4-13.6C141.6,164.9,137.7,156.4,130.7,158Z"
            transform="translate(-95.3 -113.1)" fill="#407bff" />
        <path
            d="M130.7,158c-6.9,1.6-12.6,19.1-12.6,19.1l13.8,10.6a30.5,30.5,0,0,0,7.4-13.6C141.6,164.9,137.7,156.4,130.7,158Z"
            transform="translate(-95.3 -113.1)" fill="#5c84f0" />
        <path d="M136.6,170.9c-3.8,3.7-5,10.5-5.3,16.3l.6.5a30.5,30.5,0,0,0,7.4-13.6l.3-1.6Z"
            transform="translate(-95.3 -113.1)" opacity="0.2" />
        <path
            d="M171.8,158.4s7.9,8.8.5,63.5H133c-.3-6.1,3.5-35.5-2.3-63.9a96.2,96.2,0,0,1,13.1-1.7,154.9,154.9,0,0,1,16.7,0A76.9,76.9,0,0,1,171.8,158.4Z"
            transform="translate(-95.3 -113.1)" fill="#407bff" />
        <path
            d="M171.8,158.4s7.9,8.8.5,63.5H133c-.3-6.1,3.5-35.5-2.3-63.9a96.2,96.2,0,0,1,13.1-1.7,154.9,154.9,0,0,1,16.7,0A76.9,76.9,0,0,1,171.8,158.4Z"
            transform="translate(-95.3 -113.1)" fill="#5c84f0" />
        <path d="M175.3,175.1h-.2l-8.9,2.1c-.5,6,5.7,13.3,8.9,16.5C175.5,185.9,175.5,179.9,175.3,175.1Z"
            transform="translate(-95.3 -113.1)" opacity="0.2" />
        <polygon points="65.8 278.7 65.4 287.4 58.1 287.4 58.5 278.7 65.8 278.7" opacity="0.2" />
        <polygon points="11 276.4 18.2 278 14.5 286.2 7.3 284.6 11 276.4" opacity="0.2" />
        <path
            d="M142.4,132.1c1.9,7,2.6,11.2,7,14.2,6.5,4.4,14.7-.7,14.9-8.2s-2.9-17.1-10.4-18.5A10,10,0,0,0,142.4,132.1Z"
            transform="translate(-95.3 -113.1)" fill="#ffc3bd" />
        <path
            d="M145.6,143.5c3,1.8,14-4,11.7-12.6,0,0,4.2-5,3.7-10.6s-4.3-7.6-8.3-6.4-3.4,3-3.4,3-16.8,2-13.2,8.8C129.2,133.1,141.9,141.4,145.6,143.5Z"
            transform="translate(-95.3 -113.1)" fill="#313131" />
        <path d="M136.5,126.3s-2-3.5-4.9-1.6C133,124.8,135.2,125,136.5,126.3Z" transform="translate(-95.3 -113.1)"
            fill="#263238" />
        <path d="M160.5,124s3.6-8.3-2.1-10.9A13.7,13.7,0,0,1,160.5,124Z" transform="translate(-95.3 -113.1)"
            fill="#313131" />
        <path d="M154.4,132.4a8,8,0,0,0,3,4.3c1.9,1.5,3.3.1,3.2-2.1s-1.3-5-3.4-5.6S153.8,130.2,154.4,132.4Z"
            transform="translate(-95.3 -113.1)" fill="#ffc3bd" />
        <path
            d="M158.3,221.9S150,278,145.4,299c-5,23.1-31.9,99.3-31.9,99.3l-13.1-2.9s18.8-62.1,23-94.3c3.2-24.7,9.6-79.2,9.6-79.2Z"
            transform="translate(-95.3 -113.1)" fill="#313131" />
        <path d="M116.7,393.9l-2.5,4.7-14.8-3.2,1.3-4.4Z" transform="translate(-95.3 -113.1)" fill="#313131" />
        <path d="M153.1,241.9c-9.7,1.9-8.7,37.8-7.5,56.3,2.8-13.1,6.9-38.2,9.6-56.1A3,3,0,0,0,153.1,241.9Z"
            transform="translate(-95.3 -113.1)" opacity="0.3" />
        <path d="M172.3,221.9s1,54.9.2,77.3-9,99.6-9,99.6H151.1s-.5-74.9-1-97.8c-.6-25-3.7-79.1-3.7-79.1Z"
            transform="translate(-95.3 -113.1)" fill="#313131" />
        <polygon points="146 70.1 120.7 70.1 119.2 95.9 144.6 96.6 146 70.1" fill="#263238" opacity="0.4" />
        <path d="M228,199.7l-25.4-3.1a213.2,213.2,0,0,0,4.6-25.9l25.6,3.1A231.1,231.1,0,0,1,228,199.7Z"
            transform="translate(-95.3 -113.1)" fill="#5c84f0" />
        <path d="M165.9,393.8c.1,0-.7,5.2-.7,5.2H150.1l-.4-4.6Z" transform="translate(-95.3 -113.1)" fill="#313131" />
        <path
            d="M175.5,165.1c1.1,1.7,2.4,3.7,3.7,5.5s2.6,3.7,4,5.5a82.2,82.2,0,0,0,8.7,9.8l2.4,1.9.6.5h-.7a2.7,2.7,0,0,0,1.7-.4l2.5-1.3a85.6,85.6,0,0,0,10.5-8.2l4.3,3.5a48.3,48.3,0,0,1-9.6,11.7,23.4,23.4,0,0,1-3.4,2.6,13.7,13.7,0,0,1-5.1,1.8,8.5,8.5,0,0,1-3.8-.3,8.4,8.4,0,0,1-1.9-.9l-.9-.5-3.3-2.4A77.9,77.9,0,0,1,174.5,183c-1.6-1.9-3.1-3.9-4.5-5.9s-2.8-4.1-4.1-6.3Z"
            transform="translate(-95.3 -113.1)" fill="#ffc3bd" />
        <path
            d="M161,169.5c-2.3,9.8,15.5,19.5,15.5,19.5l11.6-13.6a99.3,99.3,0,0,0-11.8-14.3C168.2,153.4,162.8,162,161,169.5Z"
            transform="translate(-95.3 -113.1)" fill="#407bff" />
        <path
            d="M161,169.5c-2.3,9.8,15.5,19.5,15.5,19.5l11.6-13.6a99.3,99.3,0,0,0-11.8-14.3C168.2,153.4,162.8,162,161,169.5Z"
            transform="translate(-95.3 -113.1)" fill="#5c84f0" />
        <path d="M207.8,180.4l2.7-8.8,7.2,3.6s-1,6.4-6.3,7.5Z" transform="translate(-95.3 -113.1)" fill="#ffc3bd" />
        <polygon points="118.1 56.1 124.5 57.9 122.4 62.1 115.2 58.5 118.1 56.1" fill="#ffc3bd" />
    </g>
</svg>